<svg id="Layer_1" data-name="Layer 1" xmlns="http://www.w3.org/2000/svg" viewBox="0 0 189.5 69.76"><defs><style>.cls-1{fill:#2cff2c;}.cls-2{fill:#fff;}</style></defs><title>foodle</title><path class="cls-1" d="M143.4,54c-.37-1.52-.66-3.31-1.14-4.78A21.36,21.36,0,0,1,140.69,56c-.68,1.52-1.54.58-2.25-.7a6.38,6.38,0,0,1-.95-3.22c-.11-3.21,1-7-.21-10-1-2.52-3-4.59-4.59-6.56a34.69,34.69,0,0,1-.55,3.57,9.37,9.37,0,0,1-2.29,4.46c-1.21,1.07-2.33,1.71-3,3.43a11.22,11.22,0,0,0-.49,4.26c0,1.71.55,3.36-.73,4.61-.64.64-1.38.49-1.66-.67a8.39,8.39,0,0,0-.57-2.37,4.35,4.35,0,0,1-.52-2.12v-.08c0,3.63-1.3,7.33-1.23,11a19.18,19.18,0,0,0,.89,5.73,8.76,8.76,0,0,0,5.44,5.6,17.11,17.11,0,0,0,4,.93c1.3.23,3.74-.41,5-.8,5.47-1.65,7.3-7,7.3-13.49A22.83,22.83,0,0,0,143.4,54ZM133.31,69.2c-3,0-5.16-1.89-3.7-5.93,1.27-3.83,2.63-4.76,3.46-9,.24,4.34,2.54,6.27,3.45,9.86C136.88,66.41,136.31,69.2,133.31,69.2Z" transform="translate(45.19 -33.63)"/><path class="cls-2" d="M17.88,61.83h-2c-.26-.15-.39-.29-.39-.41s.13-.37.39-.57h2V54.58q0-5.69,2.13-8.39a6.11,6.11,0,0,1,4.77-2.71,4.55,4.55,0,0,1,3.41,1.59A5.5,5.5,0,0,1,29.68,49a4.62,4.62,0,0,1-.94,3,2.69,2.69,0,0,1-2.08,1.14,2.56,2.56,0,0,1-1.94-.86,3.37,3.37,0,0,1-.8-2.39,3.77,3.77,0,0,1,.86-2.69,3.51,3.51,0,0,1,2.59-1,3.05,3.05,0,0,0-1-1.18,2.72,2.72,0,0,0-1.46-.39,3,3,0,0,0-2.27,1.2,4.74,4.74,0,0,0-1,3.19,17.28,17.28,0,0,0,1.57,6.22,19.39,19.39,0,0,1,1.65,5.58H29.4c.26.18.4.33.4.45s-.14.36-.4.53H24.82v40.11l4.66.08.08.41a.8.8,0,0,1-.16.49H15.92l-.2-.12-.12-.37a.62.62,0,0,1,.32-.49h2Z" transform="translate(45.19 -33.63)"/><path class="cls-2" d="M32.3,84.77V77.08q0-9.21,3.1-13.52a6.88,6.88,0,0,1,5.8-3.18c3,0,5.22,1.56,6.81,4.67s2.37,7.22,2.37,12.35v8.5q0,10-3.06,14.35a6.8,6.8,0,0,1-5.84,3.14,7.11,7.11,0,0,1-3.86-1.1,9.39,9.39,0,0,1-3.16-4,21.19,21.19,0,0,1-1.78-7.6C32.43,87.56,32.3,85.58,32.3,84.77ZM43.36,65.44a5.45,5.45,0,0,0-.64-3.08,1.84,1.84,0,0,0-1.49-.88,1.69,1.69,0,0,0-1.33.72,3.59,3.59,0,0,0-.58,2.22V97.35a8.7,8.7,0,0,0,.7,4.2,1.7,1.7,0,0,0,1.48.78,1.57,1.57,0,0,0,1.37-.69,5.73,5.73,0,0,0,.49-3Z" transform="translate(45.19 -33.63)"/><path class="cls-2" d="M54.06,84.77V77.08q0-9.21,3.1-13.52A6.86,6.86,0,0,1,63,60.38c3,0,5.22,1.56,6.8,4.67s2.38,7.22,2.38,12.35v8.5q0,10-3.06,14.35a6.81,6.81,0,0,1-5.84,3.14,7.15,7.15,0,0,1-3.87-1.1,9.46,9.46,0,0,1-3.15-4,21,21,0,0,1-1.78-7.6C54.19,87.56,54.06,85.58,54.06,84.77ZM65.12,65.44a5.54,5.54,0,0,0-.64-3.08,1.84,1.84,0,0,0-1.5-.88,1.69,1.69,0,0,0-1.32.72,3.53,3.53,0,0,0-.58,2.22V97.35a8.58,8.58,0,0,0,.7,4.2,1.7,1.7,0,0,0,1.47.78,1.58,1.58,0,0,0,1.38-.69,5.73,5.73,0,0,0,.49-3Z" transform="translate(45.19 -33.63)"/><path class="cls-2" d="M93.62,101.94h1.69c.26.17.39.34.39.49s-.13.31-.39.49H86.6V99.78a7,7,0,0,1-1.79,2.71,3.64,3.64,0,0,1-2.43.9q-3.12,0-4.92-4.67T75.67,84q0-15.75,2.73-20.66c1.12-2,2.58-3,4.38-3a3.56,3.56,0,0,1,2,.65A7,7,0,0,1,86.6,63v-18H84.41Q84,44.7,84,44.43c0-.16.13-.32.39-.47h9.21Zm-7-34.58a7.25,7.25,0,0,0-1.07-4.19,2,2,0,0,0-1.66-1.1,1.06,1.06,0,0,0-.82.41,1.52,1.52,0,0,0-.37,1.08V99.63a3.06,3.06,0,0,0,.34,1.68,1,1,0,0,0,.8.47c.46,0,.92-.34,1.37-1a6,6,0,0,0,1.41-3.33Z" transform="translate(45.19 -33.63)"/><path class="cls-2" d="M106.68,44v58h1.52a.47.47,0,0,1,.34.13.53.53,0,0,1,0,.72.44.44,0,0,1-.33.13H98a.44.44,0,0,1-.33-.13.53.53,0,0,1,0-.72.44.44,0,0,1,.33-.13h1.65v-57H98a.56.56,0,0,1-.39-.14.41.41,0,0,1-.16-.34.41.41,0,0,1,.16-.35A.53.53,0,0,1,98,44Z" transform="translate(45.19 -33.63)"/><path class="cls-2" d="M118.52,82V96.61q0,3.4.78,4.5a2.19,2.19,0,0,0,1.92.83c1.46,0,2.77-.83,3.92-2.47q2.86-4.16,3.06-11.33a10.24,10.24,0,0,1,.22-2.67.53.53,0,0,1,.49-.31.51.51,0,0,1,.43.23,3.5,3.5,0,0,1,.19,1.49,25.41,25.41,0,0,1-2.45,11.75q-2.44,4.75-6.6,4.76a7.57,7.57,0,0,1-6.43-3.67q-2.55-3.66-2.55-15.89V78.06q0-9.36,3.45-14.23,2.46-3.45,6-3.45c2.77,0,4.9,1.48,6.41,4.43a23.63,23.63,0,0,1,2.25,10.78V82Zm4-1.06V64.26a4,4,0,0,0-.62-2.43,1.48,1.48,0,0,0-1.28-.59,1.9,1.9,0,0,0-1.49.75,3.4,3.4,0,0,0-.64,2.27V81Z" transform="translate(45.19 -33.63)"/><text x="45.19" y="-33.63"/></svg>